<svg width="18" height="30" viewBox="0 0 18 30" fill="none" xmlns="http://www.w3.org/2000/svg">
    <path
        d="M1.99695 1.97427L1 11.0374C1.00298 11.7594 1.21975 12.4642 1.62301 13.0631C2.02627 13.6619 2.59793 14.1279 3.26578 14.4021L2.5746 26.7053C2.56087 27.2413 2.75998 27.7609 3.12832 28.1504C3.49666 28.54 4.00439 28.7679 4.54029 28.7842C5.07618 28.7679 5.58377 28.54 5.95211 28.1504C6.32046 27.7609 6.51956 27.2413 6.50584 26.7053L6.03564 14.4021C6.70393 14.1285 7.27603 13.6627 7.67938 13.0637C8.08274 12.4648 8.29919 11.7595 8.30142 11.0374L7.49145 1.97427M4.64218 2.28016V11.6378M16.2316 14.2322C15.9048 14.2759 15.6065 14.4414 15.3965 14.6955C15.1864 14.9497 15.0801 15.2738 15.0987 15.603L15.7219 26.711C15.7356 27.2469 15.5365 27.7665 15.1682 28.1561C14.7998 28.5457 14.2921 28.7735 13.7562 28.7898C13.2203 28.7735 12.7127 28.5457 12.3444 28.1561C11.976 27.7665 11.7769 27.2469 11.7907 26.711L12.2268 15.0818C12.2352 14.8673 12.201 14.6532 12.1262 14.4519C12.0513 14.2507 11.9372 14.0662 11.7907 13.9093V1C11.7907 1 18.2765 1.27189 16.2146 14.2322H16.2316Z"
        stroke="#F1FFF3" stroke-width="1.69934" stroke-linecap="round" stroke-linejoin="round" />
</svg>
