<svg width="20" height="18" viewBox="0 0 20 18" fill="none" xmlns="http://www.w3.org/2000/svg">
    <path
        d="M3.59859 7.04575H17.0416M4.18351 0.792969V4.00876M7.96123 0.792969V4.00876M12.6815 0.792969V4.00876M16.4592 0.792969V4.00876M2.08903 2.64479H18.5537C18.7474 2.64479 18.9332 2.72176 19.0702 2.85875C19.2072 2.99575 19.2842 3.18156 19.2842 3.3753V15.1452C19.2842 15.5422 19.1265 15.9229 18.8458 16.2036C18.5651 16.4843 18.1844 16.642 17.7874 16.642H2.8553C2.45833 16.642 2.07762 16.4843 1.79692 16.2036C1.51622 15.9229 1.35852 15.5422 1.35852 15.1452V3.3753C1.35852 3.18156 1.43548 2.99575 1.57248 2.85875C1.70948 2.72176 1.89529 2.64479 2.08903 2.64479Z"
        stroke="#093030" stroke-width="1.27712" stroke-linecap="round" stroke-linejoin="round" />
</svg>
