<svg width="29" height="25" viewBox="0 0 29 25" fill="none" xmlns="http://www.w3.org/2000/svg">
    <path
        d="M11.8383 17.893H17.5027C18.0235 17.8915 18.5226 17.6839 18.8909 17.3156C19.2592 16.9473 19.4668 16.4483 19.4683 15.9274C19.4653 15.4076 19.2571 14.9099 18.8889 14.5429C18.5208 14.1758 18.0226 13.969 17.5027 13.9675H13.9114C13.1055 13.958 12.3056 13.8282 11.538 13.5823C10.1162 13.2765 7.81651 13.2595 6.76292 15.9274H4.49714M19.4399 15.9274L24.5379 12.9253C24.9828 12.6557 25.5165 12.5735 26.0219 12.6967C26.5273 12.8198 26.9632 13.1383 27.2342 13.5823C27.5028 14.0269 27.5851 14.5595 27.4631 15.0644C27.3411 15.5693 27.0248 16.0056 26.5828 16.2786L19.9158 21.2973C18.7272 22.1918 17.2796 22.675 15.792 22.6738H4.46312M17.5481 7.03989L16.1602 8.43335C16.1517 8.44209 16.1416 8.44904 16.1304 8.45379C16.1192 8.45853 16.1072 8.46094 16.095 8.46094C16.0829 8.46094 16.071 8.45853 16.0598 8.45379C16.0486 8.44904 16.0383 8.44209 16.0299 8.43335L15.1746 7.03422H11.4361C11.1073 7.88962 10.5269 8.62526 9.77147 9.14404C9.01605 9.66282 8.12117 9.94037 7.20476 9.94008C6.00292 9.94008 4.85022 9.46266 4.00039 8.61282C3.15056 7.76299 2.6732 6.61037 2.6732 5.40852C2.6732 4.20667 3.15056 3.05405 4.00039 2.20422C4.85022 1.35438 6.00292 0.876955 7.20476 0.876955C8.12051 0.876224 9.01488 1.15296 9.77023 1.67068C10.5256 2.1884 11.1064 2.92281 11.4361 3.77715H19.7685L21.8983 5.58412L19.0661 8.51263L17.5481 7.0682M4.47446 14.9248C4.47446 14.8437 4.44221 14.7659 4.38484 14.7085C4.32748 14.6511 4.24968 14.6189 4.16855 14.6189H1.18337C1.10225 14.6189 1.02445 14.6511 0.967085 14.7085C0.909722 14.7659 0.877472 14.8437 0.877472 14.9248V23.6651C0.877472 23.7462 0.909722 23.824 0.967085 23.8813C1.02445 23.9387 1.10225 23.971 1.18337 23.971H4.16855C4.24968 23.971 4.32748 23.9387 4.38484 23.8813C4.44221 23.824 4.47446 23.7462 4.47446 23.6651V14.9248Z"
        stroke="#F1FFF3" stroke-width="1.69934" stroke-linecap="round" stroke-linejoin="round" />
</svg>
